PathFileType	4	(x/y/z)	Passive_Pref0001.trc
DataRate	CameraRate	NumFrames	NumMarkers	Units	OrigDataRate	OrigDataStartFrame	OrigNumFrames
240	240	4	50	mm	240	195	311
Frame#	Time	R_AC			L_AC			HEAD			STERN			C7			L_IC			R_IC			L_ASIS			R_ASIS			L_GT			R_GT			R_PSIS			L_PSIS			SACRAL			L_LAT_KNEE			L_MED_KNEE			R_LAT_KNEE			R_MED_KNEE			L_LAT_ANK			L_MED_ANK			R_LAT_ANK			R_MED_ANK			L_THIGH_PROX_POST			L_THIGH_PROX_ANT			L_THIGH_DIST_ANT			L_THIGH_DIST_POST			R_THIGH_PROX_POST			R_THIGH_PROX_ANT			R_THIGH_DIST_ANT			R_THIGH_DIST_POST			L_SHANK_PROX_POST			L_SHANK_PROX_ANT			L_SHANK_DIST_ANT			L_SHANK_DIST_POST			R_SHANK_PROX_POST			R_SHANK_PROX_ANT			R_SHANK_DIST_ANT			R_SHANK_DIST_POST			L_HEEL_LAT			L_HEEL_SUP			L_HEEL_MED			R_HEEL_LAT			R_HEEL_SUP			R_HEEL_MED			L_1ST_MET			L_5TH_MET			L_TOE			R_1ST_MET			R_5TH_MET			R_TOE			
		X1	Y1	Z1	X2	Y2	Z2	X3	Y3	Z3	X4	Y4	Z4	X5	Y5	Z5	X6	Y6	Z6	X7	Y7	Z7	X8	Y8	Z8	X9	Y9	Z9	X10	Y10	Z10	X11	Y11	Z11	X12	Y12	Z12	X13	Y13	Z13	X14	Y14	Z14	X15	Y15	Z15	X16	Y16	Z16	X17	Y17	Z17	X18	Y18	Z18	X19	Y19	Z19	X20	Y20	Z20	X21	Y21	Z21	X22	Y22	Z22	X23	Y23	Z23	X24	Y24	Z24	X25	Y25	Z25	X26	Y26	Z26	X27	Y27	Z27	X28	Y28	Z28	X29	Y29	Z29	X30	Y30	Z30	X31	Y31	Z31	X32	Y32	Z32	X33	Y33	Z33	X34	Y34	Z34	X35	Y35	Z35	X36	Y36	Z36	X37	Y37	Z37	X38	Y38	Z38	X39	Y39	Z39	X40	Y40	Z40	X41	Y41	Z41	X42	Y42	Z42	X43	Y43	Z43	X44	Y44	Z44	X45	Y45	Z45	X46	Y46	Z46	X47	Y47	Z47	X48	Y48	Z48	X49	Y49	Z49	X50	Y50	Z50	

195	0.81094	252.47	1504.3	488.36	235.23	1533.1	87.032	297.61	1829.5	319.08	331.24	1464.5	291.29	179.23	1556.7	296.56	206.86	1097.4	119.85	240.35	1110.4	456.29	275.42	1003.4	141.37	310.56	1027.1	409	160.82	926.4	105.36	229.27	941.11	470.42	86.048	1012.3	348.61	73.648	1015.2	263.61	68.637	980.22	304.63	132.18	523.87	107.67	164.81	508.17	241.45	375.65	544.78	422.84	362.75	547.95	288.42	-229.06	261.96	139.57	-234.77	267.08	222.19	332.7	88.428	375.55	362.56	110.74	273.11	183.43	761.56	102.69	247.95	751.11	123.7	237.28	678.79	128.28	180.48	684.68	106.29	237.59	782.92	449.55	294.16	804.2	469.81	312.21	731.65	456.83	263.34	714.3	437.3	93.914	484.9	120.75	150.74	462.56	128.96	102.27	416.66	143.58	50.426	440.28	124.82	331.34	380.44	428.69	388.41	381.62	417.48	384.74	306.72	405.05	329.61	303.44	414.14	-319.04	260.93	140.32	-309.87	289.84	173.82	-330.96	267.32	209.6	259.43	42.156	336.37	261.9	69.684	300.52	288.19	43.271	276.25	-181.5	96.293	243.04	-193.67	105.75	128.92	-131.45	73.857	208.99	502.11	48.563	291.97	459.36	41.042	404.38	549.36	63.151	349.27
196	0.81512	257.21	1505.1	488.8	239.93	1533.5	87.397	302.65	1830.2	319.59	335.99	1465.3	291.75	184	1557.3	296.95	211.9	1098	120.62	245.59	1110.9	457.03	280.86	1004.3	142.12	315.75	1027.5	409.83	166.71	926.9	105.99	234.35	941.36	470.98	91.203	1012.7	349.25	78.844	1015.4	264.22	73.862	980.48	305.31	141.92	524.22	107.25	174.64	508.48	241.03	378.94	544.44	423.01	366.19	547.84	288.58	-220.88	264.5	140.06	-226.35	269.75	222.65	332.88	88.583	375.38	362.85	110.63	272.87	191.04	762.07	102.84	255.69	752.17	123.67	245.83	679.77	128.09	188.84	685.14	106.22	241.99	783.21	449.92	298.66	804.21	470.22	316.46	731.56	457.08	267.46	714.48	437.64	103.43	485.49	120.45	160.14	462.81	128.58	111.43	417.19	143.34	59.68	441.13	124.64	333.57	380.43	428.69	390.65	381.25	417.48	386.5	306.39	404.99	331.35	303.47	414.07	-310.85	263.99	140.96	-301.43	292.86	174.43	-322.7	270.53	210.26	259.54	42.388	336.34	262.06	69.851	300.45	288.28	43.345	276.2	-174.11	98.669	243.64	-186.41	108.07	129.52	-124.25	75.903	209.53	502.29	48.112	291.9	459.48	40.971	404.38	549.54	62.581	349.21
197	0.8193	261.94	1505.9	489.23	244.58	1533.9	87.752	307.66	1830.9	320.06	340.72	1466.1	292.19	188.75	1558	297.34	216.95	1098.7	121.37	250.81	1111.4	457.75	286.28	1005.3	142.86	320.91	1027.9	410.65	172.6	927.43	106.58	239.37	941.63	471.52	96.332	1013.1	349.85	84.036	1015.6	264.78	79.068	980.77	305.95	151.67	524.62	106.84	184.49	508.84	240.61	382.11	544.1	423.23	369.54	547.72	288.78	-212.53	266.89	140.55	-217.77	272.26	223.12	333.05	88.732	375.24	363.13	110.53	272.65	198.64	762.61	102.97	263.42	753.27	123.62	254.37	680.8	127.86	197.2	685.64	106.12	246.32	783.53	450.29	303.09	804.24	470.63	320.62	731.47	457.34	271.49	714.68	438.01	112.97	486.12	120.15	169.57	463.13	128.2	120.65	417.78	143.09	68.986	442	124.45	335.73	380.43	428.73	392.81	380.89	417.54	388.19	306.07	404.97	333.03	303.5	414.05	-302.49	266.85	141.62	-292.85	295.7	175.05	-314.25	273.53	210.93	259.64	42.623	336.31	262.22	70.028	300.37	288.37	43.431	276.16	-166.45	100.92	244.2	-178.89	110.27	130.11	-116.77	77.863	210.03	502.46	47.699	291.87	459.59	40.888	404.4	549.73	62.026	349.18
198	0.82348	266.66	1506.8	489.65	249.18	1534.4	88.097	312.66	1831.6	320.49	345.45	1466.9	292.63	193.48	1558.7	297.73	222.02	1099.4	122.1	256.01	1112	458.47	291.71	1006.4	143.59	326.05	1028.4	411.45	178.48	927.99	107.14	244.34	941.92	472.05	101.44	1013.5	350.4	89.227	1015.8	265.3	84.26	981.09	306.54	161.41	525.09	106.42	194.36	509.26	240.18	385.17	543.77	423.49	372.81	547.58	289.03	-204.02	269.14	141.04	-209.02	274.6	223.59	333.2	88.875	375.13	363.41	110.45	272.47	206.23	763.19	103.08	271.13	754.4	123.54	262.91	681.87	127.59	205.54	686.19	106	250.56	783.87	450.68	307.46	804.29	471.04	324.71	731.4	457.63	275.43	714.9	438.39	122.54	486.79	119.84	179.04	463.52	127.8	129.93	418.4	142.83	78.339	442.88	124.26	337.8	380.41	428.83	394.88	380.54	417.64	389.81	305.76	405	334.64	303.52	414.06	-293.97	269.51	142.28	-284.12	298.33	175.68	-305.61	276.3	211.61	259.75	42.861	336.28	262.38	70.218	300.3	288.46	43.531	276.13	-158.52	103.04	244.74	-171.13	112.35	130.66	-109.02	79.725	210.49	502.62	47.321	291.85	459.71	40.793	404.44	549.91	61.483	349.18
